<?xml version="1.0" encoding="UTF-8"?><svg xmlns="http://www.w3.org/2000/svg" viewBox="0 0 340.72 120.64"><g id="mark-high"><path d="m314.26.5c-6.81,6.81-13.62,13.62-20.42,20.42-6.81-6.81-13.62-13.62-20.42-20.42h40.85Z" fill="#494949" stroke="#fff" stroke-miterlimit="10"/></g><g id="icon-high"><rect x="256.46" y="37.87" width="74.76" height="74.76" fill="#d8cece" stroke-width="0"/></g><g id="mark-medium"><path d="m231.69.5c-6.81,6.81-13.62,13.62-20.42,20.42-6.81-6.81-13.62-13.62-20.42-20.42h40.85Z" fill="#494949" stroke="#fff" stroke-miterlimit="10"/></g><g id="icon-medium"><rect x="173.88" y="37.87" width="74.76" height="74.76" fill="#d8cece" stroke-width="0"/></g><g id="mark-low"><path d="m148.61.84c-6.81,6.81-13.62,13.62-20.42,20.42-6.81-6.81-13.62-13.62-20.42-20.42h40.85Z" fill="#494949" stroke="#fff" stroke-miterlimit="10"/></g><g id="icon-low"><rect x="90.81" y="38.2" width="74.76" height="74.76" fill="#d8cece" stroke-width="0"/></g><g id="mark-none"><path d="m57.8,95.5c-6.81,6.81-13.62,13.62-20.42,20.42-6.81-6.81-13.62-13.62-20.42-20.42h40.85Z" fill="#494949" stroke="#fff" stroke-miterlimit="10"/></g><g id="icon-none"><rect y="117.56" width="74.76" height="3.07" fill="#d8cece" stroke-width="0"/></g><g id="container"><path d="m339.72,30.39v89.25H83.08V30.39h256.63m1-1H82.08v91.25h258.63V29.39h0Z" stroke-width="0"/></g></svg>