<?xml version="1.0" encoding="UTF-8"?><svg xmlns="http://www.w3.org/2000/svg" viewBox="0 0 281.47 120.64"><g id="mark-high"><path d="m255.01.51c-6.81,6.81-13.62,13.62-20.42,20.42-6.81-6.81-13.62-13.62-20.42-20.42h40.85Z" fill="#494949" stroke="#fff" stroke-miterlimit="10"/></g><g id="icon-high"><rect x="197.21" y="37.87" width="74.76" height="74.76" fill="#d8cece" stroke-width="0"/></g><g id="mark-medium"><path d="m172.44.51c-6.81,6.81-13.62,13.62-20.42,20.42-6.81-6.81-13.62-13.62-20.42-20.42h40.85Z" fill="#494949" stroke="#fff" stroke-miterlimit="10"/></g><g id="icon-medium"><rect x="114.63" y="37.87" width="74.76" height="74.76" fill="#d8cece" stroke-width="0"/></g><g id="mark-low"><path d="m89.36.5c-6.81,6.81-13.62,13.62-20.42,20.42-6.81-6.81-13.62-13.62-20.42-20.42h40.85Z" fill="#494949" stroke="#fff" stroke-miterlimit="10"/></g><g id="icon-low"><rect x="31.56" y="38.21" width="74.76" height="74.76" fill="#d8cece" stroke-width="0"/></g><g id="mark-none"><path d="m42.06.5c-6.81,6.81-13.62,13.62-20.42,20.42C14.82,14.12,8.02,7.31,1.21.5h40.85Z" fill="#494949" stroke="#fff" stroke-miterlimit="10"/></g><g id="container"><path d="m280.47,30.39v89.25H23.84V30.39h256.63m1-1H22.84v91.25h258.63V29.39h0Z" stroke-width="0"/></g></svg>