<?xml version="1.0" encoding="UTF-8"?><svg xmlns="http://www.w3.org/2000/svg" viewBox="0 0 342.25 120.64"><g id="mark-high"><path d="m315.79.5c-6.81,6.81-13.62,13.62-20.42,20.42-6.81-6.81-13.62-13.62-20.42-20.42h40.85Z" fill="#494949" stroke="#fff" stroke-miterlimit="10"/></g><g id="icon-high"><rect x="257.99" y="37.87" width="74.76" height="74.76" fill="#d8cece" stroke-width="0"/></g><g id="mark-medium"><path d="m233.21.5c-6.81,6.81-13.62,13.62-20.42,20.42-6.81-6.81-13.62-13.62-20.42-20.42h40.85Z" fill="#494949" stroke="#fff" stroke-miterlimit="10"/></g><g id="icon-medium"><rect x="175.41" y="37.87" width="74.76" height="74.76" fill="#d8cece" stroke-width="0"/></g><g id="mark-low"><path d="m150.14.84c-6.81,6.81-13.62,13.62-20.42,20.42-6.81-6.81-13.62-13.62-20.42-20.42h40.85Z" fill="#494949" stroke="#fff" stroke-miterlimit="10"/></g><g id="icon-low"><rect x="92.33" y="38.2" width="74.76" height="74.76" fill="#d8cece" stroke-width="0"/></g><g id="mark-info"><path d="m66.56.5c-6.81,6.81-13.62,13.62-20.42,20.42-6.81-6.81-13.62-13.62-20.42-20.42h40.85Z" fill="#494949" stroke="#fff" stroke-miterlimit="10"/></g><g id="icon-info"><rect x="8.76" y="37.87" width="74.76" height="74.76" fill="#d8cece" stroke-width="0"/></g><g id="container"><path d="m341.25,30.39v89.25H1V30.39h340.25m1-1H0v91.25h342.25V29.39h0Z" stroke-width="0"/></g></svg>