<?xml version="1.0" encoding="utf-8"?>
<!-- Generator: Adobe Illustrator 27.8.1, SVG Export Plug-In . SVG Version: 6.00 Build 0)  -->
<svg version="1.1" baseProfile="tiny" id="Layer_1" xmlns="http://www.w3.org/2000/svg" xmlns:xlink="http://www.w3.org/1999/xlink"
	 x="0px" y="0px" width="2000px" height="2000px" viewBox="0 0 2000 2000" overflow="visible" xml:space="preserve">
<g>
	<path fill="#E52C56" d="M1779.37,1481.68L1779.37,1481.68L1297.7,1000l481.68-481.67l0,0c5.21-5.21,8.93-11.26,11.36-17.71
		c6.6-17.66,2.83-38.25-11.36-52.44l-227.54-227.54c-14.19-14.19-34.83-17.91-52.44-11.36c-6.45,2.38-12.5,6.15-17.71,11.31l0,0
		L1000,702.25L518.33,220.58l0,0c-5.21-5.16-11.26-8.93-17.71-11.31c-17.66-6.6-38.25-2.83-52.44,11.36L220.63,448.17
		c-14.19,14.19-17.91,34.83-11.36,52.44c2.43,6.45,6.15,12.5,11.36,17.71l0,0L702.3,1000l-481.68,481.67l0,0
		c-5.16,5.21-8.93,11.26-11.36,17.71c-6.6,17.61-2.83,38.25,11.36,52.44l227.54,227.54c14.19,14.19,34.83,17.91,52.44,11.36
		c6.45-2.43,12.5-6.15,17.71-11.36l0,0L1000,1297.7l481.67,481.68l0,0c5.21,5.21,11.26,8.93,17.71,11.36
		c17.66,6.6,38.25,2.83,52.44-11.36l227.54-227.54c14.19-14.19,17.96-34.83,11.36-52.44
		C1788.3,1492.94,1784.58,1486.88,1779.37,1481.68z"/>
</g>
</svg>
