<?xml version="1.0" encoding="utf-8"?>
<!-- Generator: Adobe Illustrator 27.8.1, SVG Export Plug-In . SVG Version: 6.00 Build 0)  -->
<svg version="1.1" baseProfile="tiny" id="Layer_1" xmlns="http://www.w3.org/2000/svg" xmlns:xlink="http://www.w3.org/1999/xlink"
	 x="0px" y="0px" width="2000px" height="2000px" viewBox="0 0 2000 2000" overflow="visible" xml:space="preserve">
<path fill="#E52C56" d="M1966.64,1680.14L1042.61,264.24c-20.08-30.77-65.15-30.77-85.23,0L33.36,1680.14
	c-22.09,33.85,2.2,78.69,42.61,78.69h1848.06C1964.45,1758.83,1988.73,1713.98,1966.64,1680.14z M1125.28,1571.3
	c0,16.98-13.76,30.74-30.74,30.74H905.46c-16.98,0-30.74-13.76-30.74-30.74v-189.08c0-16.98,13.76-30.74,30.74-30.74h189.08
	c16.98,0,30.74,13.76,30.74,30.74V1571.3z M1125.28,1165.47c0,16.98-13.76,30.74-30.74,30.74H905.46
	c-16.97,0-30.74-13.76-30.74-30.74V658.42c0-16.98,13.76-30.74,30.74-30.74h189.08c16.98,0,30.74,13.76,30.74,30.74V1165.47z"/>
</svg>
